<?xml version="1.0" encoding="UTF-8"?>
<svg id="Ebene_1" data-name="Ebene 1" xmlns="http://www.w3.org/2000/svg" viewBox="0 0 141.73 141.73">
  <defs>
    <style>
      .cls-1 {
        fill: #7a1fc9;
      }

      .cls-2 {
        fill: #e93cac;
      }

      .cls-3 {
        fill: #0090c7;
      }
    </style>
  </defs>
  <path d="M12.65,71.02c-1.65,0-3.14-.43-4.47-1.28-1.33-.86-2.38-2.11-3.16-3.77-.77-1.65-1.16-3.68-1.16-6.07s.4-4.51,1.2-6.16c.8-1.65,1.86-2.88,3.19-3.71,1.33-.82,2.79-1.24,4.38-1.24,1.22,0,2.24.21,3.05.62.81.41,1.47.92,1.97,1.53.5.61.88,1.19,1.12,1.76h.19v-10.81h5.79v28.77h-5.7v-3.46h-.29c-.26.58-.64,1.16-1.15,1.75-.51.59-1.17,1.08-1.98,1.48-.81.4-1.81.6-2.99.6ZM14.45,66.37c.98,0,1.82-.27,2.51-.81.7-.54,1.22-1.3,1.58-2.27.36-.97.54-2.11.54-3.41s-.18-2.45-.53-3.41c-.35-.96-.88-1.71-1.57-2.24-.7-.53-1.54-.8-2.53-.8s-1.87.28-2.56.83c-.69.55-1.21,1.31-1.55,2.28-.35.97-.52,2.08-.52,3.34s.18,2.38.53,3.36c.35.98.88,1.74,1.56,2.3.69.55,1.54.83,2.54.83Z"/>
  <path d="M40.33,71.02c-1.17,0-2.16-.2-2.97-.6-.81-.4-1.47-.89-1.98-1.48-.51-.59-.9-1.17-1.17-1.75h-.27v3.46h-5.7v-28.77h5.79v10.81h.17c.27-.57.65-1.15,1.15-1.76.5-.61,1.15-1.11,1.96-1.53.81-.41,1.83-.62,3.05-.62,1.6,0,3.06.41,4.38,1.24,1.33.82,2.38,2.06,3.18,3.71.79,1.65,1.19,3.7,1.19,6.16s-.39,4.42-1.16,6.07c-.77,1.65-1.82,2.91-3.15,3.77-1.33.86-2.82,1.28-4.48,1.28ZM38.55,66.37c1,0,1.85-.28,2.54-.83.69-.55,1.21-1.32,1.56-2.3.35-.98.53-2.1.53-3.36s-.18-2.38-.53-3.34c-.35-.97-.87-1.72-1.55-2.28-.68-.55-1.53-.83-2.55-.83s-1.83.27-2.53.8c-.7.53-1.22,1.28-1.58,2.24-.36.96-.54,2.1-.54,3.41s.18,2.44.55,3.41c.37.97.9,1.73,1.59,2.27.7.54,1.53.81,2.51.81Z"/>
  <path d="M55.49,70.65l-6.37-21.59h6.08l1.87,7.98c.32,1.43.67,2.98,1.04,4.66.37,1.68.71,3.54,1.02,5.57h-.66c.33-1.98.7-3.82,1.1-5.51.4-1.69.77-3.27,1.12-4.72l1.97-7.98h5.33l1.93,7.98c.32,1.46.68,3.02,1.08,4.7.4,1.68.77,3.52,1.12,5.53h-.66c.31-2,.64-3.83.99-5.51.35-1.68.7-3.25,1.03-4.72l1.87-7.98h6.16l-6.41,21.59h-5.89l-2.39-8.32c-.23-.84-.46-1.76-.7-2.77-.23-1.01-.46-2.04-.68-3.09-.22-1.05-.44-2.03-.68-2.94h1.02c-.22.91-.44,1.9-.67,2.94-.23,1.05-.45,2.08-.69,3.1-.23,1.02-.46,1.94-.7,2.76l-2.39,8.32h-5.89Z"/>
  <path d="M28.24,99.43v-21.59h5.37l.29,5.37h-.42c.33-1.33.83-2.41,1.48-3.24.65-.84,1.41-1.45,2.29-1.85.88-.4,1.8-.6,2.76-.6,1.56,0,2.81.49,3.77,1.48.95.98,1.65,2.51,2.1,4.57h-.68c.32-1.38.85-2.51,1.57-3.41.73-.89,1.59-1.56,2.59-1.99,1-.43,2.04-.65,3.14-.65,1.33,0,2.51.29,3.54.87,1.04.58,1.85,1.41,2.45,2.5.6,1.09.9,2.42.9,3.99v14.56h-5.79v-13.46c0-1.22-.33-2.13-.99-2.72-.66-.59-1.48-.89-2.44-.89-.72,0-1.35.16-1.88.47-.53.32-.95.76-1.24,1.32-.29.57-.43,1.23-.43,1.99v13.29h-5.6v-13.61c0-1.06-.31-1.9-.94-2.52-.62-.62-1.43-.94-2.42-.94-.68,0-1.3.15-1.84.46-.55.31-.98.76-1.29,1.36-.32.6-.47,1.33-.47,2.19v13.05h-5.79Z"/>
  <path d="M71.24,99.85c-2.2,0-4.1-.45-5.7-1.35-1.6-.9-2.82-2.18-3.68-3.84-.86-1.66-1.28-3.63-1.28-5.91s.42-4.18,1.27-5.85c.85-1.67,2.05-2.98,3.61-3.92,1.56-.94,3.39-1.41,5.48-1.41,1.42,0,2.74.23,3.96.68,1.22.45,2.3,1.13,3.22,2.04s1.65,2.04,2.17,3.41c.52,1.36.78,2.97.78,4.83v1.62h-18.13v-3.63h15.29l-2.7.97c0-1.12-.17-2.1-.51-2.93-.34-.83-.85-1.47-1.53-1.93-.68-.46-1.51-.69-2.5-.69s-1.86.23-2.56.7c-.7.46-1.23,1.09-1.59,1.88-.36.79-.54,1.7-.54,2.71v2.57c0,1.25.21,2.3.63,3.15.42.85,1,1.49,1.76,1.91s1.63.64,2.64.64c.68,0,1.3-.1,1.85-.29.55-.19,1.03-.48,1.42-.86.39-.38.69-.85.9-1.4l5.25.98c-.35,1.18-.95,2.22-1.82,3.12-.86.89-1.94,1.59-3.23,2.08-1.29.49-2.78.73-4.47.73Z"/>
  <path d="M91.27,99.79c-1.65,0-3.14-.43-4.47-1.28-1.33-.86-2.38-2.11-3.16-3.77-.77-1.65-1.16-3.68-1.16-6.07s.4-4.51,1.2-6.16c.8-1.65,1.86-2.88,3.19-3.71,1.33-.82,2.79-1.24,4.38-1.24,1.22,0,2.24.21,3.05.62.81.41,1.47.92,1.97,1.53.5.61.88,1.19,1.12,1.76h.19v-10.81h5.79v28.77h-5.7v-3.46h-.29c-.26.58-.64,1.16-1.15,1.75-.51.59-1.17,1.08-1.98,1.48-.81.4-1.81.6-2.99.6ZM93.07,95.14c.98,0,1.82-.27,2.51-.81.7-.54,1.22-1.3,1.58-2.27.36-.97.54-2.11.54-3.41s-.18-2.45-.53-3.41c-.35-.96-.88-1.71-1.57-2.24-.7-.53-1.54-.8-2.53-.8s-1.87.28-2.56.83c-.69.55-1.21,1.31-1.55,2.28-.35.97-.52,2.08-.52,3.34s.18,2.38.53,3.36c.35.98.88,1.74,1.56,2.3.69.55,1.54.83,2.54.83Z"/>
  <path d="M108.68,99.43v-21.59h5.79v21.59h-5.79Z"/>
  <path d="M124.5,99.85c-1.36,0-2.59-.24-3.68-.72-1.09-.48-1.94-1.2-2.57-2.16-.62-.96-.94-2.15-.94-3.58,0-1.2.22-2.2.67-3.01.44-.81,1.05-1.46,1.82-1.95.77-.49,1.63-.86,2.61-1.12.97-.26,1.99-.44,3.06-.54,1.25-.13,2.26-.25,3.02-.36.77-.11,1.33-.28,1.68-.52.35-.24.53-.59.53-1.05v-.1c0-.62-.13-1.14-.39-1.56-.26-.42-.64-.75-1.15-.98-.51-.23-1.12-.34-1.84-.34s-1.4.11-1.95.34c-.55.23-1,.52-1.35.9-.35.37-.61.79-.77,1.26l-5.31-.87c.37-1.26.99-2.33,1.85-3.21.86-.88,1.93-1.54,3.22-2.01,1.28-.46,2.73-.7,4.34-.7,1.16,0,2.29.14,3.38.42,1.09.28,2.08.7,2.94,1.28.87.58,1.56,1.34,2.07,2.27.51.93.76,2.05.76,3.35v14.54h-5.48v-2.99h-.19c-.35.67-.81,1.26-1.39,1.77-.58.51-1.28.91-2.1,1.21-.82.3-1.76.44-2.83.44ZM126.14,95.78c.91,0,1.72-.18,2.4-.54.69-.36,1.23-.85,1.61-1.47.39-.62.58-1.31.58-2.07v-2.34c-.17.13-.42.24-.77.35-.35.1-.73.19-1.16.27-.42.08-.84.15-1.26.21-.41.06-.78.12-1.1.15-.71.1-1.33.27-1.87.5-.54.23-.96.54-1.26.92-.3.38-.44.87-.44,1.46,0,.55.14,1.02.42,1.4.28.38.67.67,1.16.86.49.19,1.05.29,1.68.29Z"/>
  <circle class="cls-2" cx="88.06" cy="60.17" r="4.84"/>
  <circle class="cls-1" cx="100.53" cy="60.17" r="4.84"/>
  <circle class="cls-3" cx="111.99" cy="60.17" r="4.84"/>
</svg>